<svg width="115" height="124" viewBox="0 0 115 124" fill="none" xmlns="http://www.w3.org/2000/svg">
<g clip-path="url(#clip0)">
<path d="M106.932 100.417C106.065 106.874 101.728 112.457 95.6585 114.94C92.6843 116.178 89.4618 116.554 86.2393 116.178C83.1438 115.807 80.0426 114.812 76.8259 112.955C72.3675 110.467 67.9033 106.625 62.6999 100.915C70.8775 90.8593 75.8325 81.6773 77.6921 73.4847C78.5584 69.6372 78.6854 66.16 78.3101 62.9315C77.8134 59.8304 76.6988 56.9722 74.9663 54.4901C71.1258 48.9069 64.6808 45.6784 57.4965 45.6784C50.3123 45.6784 43.8672 49.0284 40.0268 54.4901C38.2942 56.9722 37.1796 59.8304 36.683 62.9315C36.1863 66.16 36.3134 69.7587 37.3009 73.4847C39.1605 81.6773 44.2368 90.9866 52.2931 101.036C47.211 106.747 42.6314 110.594 38.1672 113.077C34.9447 114.94 31.8492 115.935 28.7537 116.305C25.5601 116.664 22.3318 116.236 19.3403 115.067C13.2706 112.585 8.93353 106.996 8.06726 100.545C7.69765 97.4435 7.94598 94.3423 9.18186 90.8651C9.55147 89.6211 10.1752 88.383 10.7931 86.8961C11.6594 84.9115 12.6527 82.7997 13.6403 80.688L13.7673 80.4392C22.3145 61.9422 31.4854 43.0748 41.0259 24.7051L41.3955 23.9588C42.3888 22.1015 43.3764 20.1112 44.3697 18.2482C45.363 16.2637 46.4776 14.4007 47.8405 12.7865C50.4451 9.80683 53.9102 8.19261 57.7506 8.19261C61.5911 8.19261 65.0619 9.80683 67.6607 12.7865C69.0237 14.4007 70.1383 16.2637 71.1316 18.2482C72.1249 20.1112 73.1124 22.0957 74.1058 23.953L74.4812 24.6993C83.8946 43.1906 93.0655 62.0579 101.613 80.5549V80.6764C102.606 82.6609 103.472 84.9 104.46 86.8845C105.078 88.3772 105.701 89.6154 106.071 90.8535C107.059 94.0877 107.428 97.1889 106.932 100.417ZM57.4965 94.5795C50.8089 86.1381 46.4718 78.1943 44.9818 71.4944C44.3639 68.6363 44.2368 66.1542 44.6122 63.9209C44.8606 61.9364 45.6055 60.1949 46.5931 58.7079C48.9493 55.358 52.9111 53.2462 57.4965 53.2462C62.082 53.2462 66.1708 55.2365 68.4 58.7079C69.3933 60.2006 70.1325 61.9364 70.3808 63.9209C70.7504 66.1542 70.6292 68.7635 70.0112 71.4944C68.527 78.0728 64.1899 86.0166 57.4965 94.5795ZM113.377 88.1284C112.759 86.6415 112.135 85.0273 111.517 83.6618C110.524 81.4285 109.536 79.3167 108.664 77.3322L108.543 77.2107C99.9956 58.5922 90.8248 39.7249 81.163 21.1064L80.7934 20.36C79.8 18.497 78.8125 16.5125 77.8192 14.528C76.5775 12.2947 75.3417 9.93412 73.3608 7.70082C69.3933 2.73087 63.6932 0 57.6236 0C51.4269 0 45.8539 2.73087 41.7593 7.44625C39.8997 9.67955 38.5368 12.0401 37.3009 14.2734C36.3076 16.2579 35.3201 18.2424 34.3267 20.1055L33.9571 20.846C24.4166 39.4645 15.1245 58.3318 6.57728 76.9504L6.456 77.1992C5.58974 79.1837 4.59641 81.2955 3.60309 83.5287C2.93895 84.9983 2.32102 86.4911 1.7435 87.9953C0.132245 92.5892 -0.364415 96.9343 0.253523 101.401C1.61645 110.71 7.81316 118.532 16.3603 122.004C19.5829 123.369 22.9266 123.988 26.3975 123.988C27.3908 123.988 28.6267 123.867 29.62 123.74C33.7088 123.242 37.9189 121.882 42.0076 119.522C47.0898 116.669 51.9178 112.573 57.3695 106.614C62.8212 112.573 67.7762 116.669 72.7313 119.522C76.8201 121.882 81.0301 123.242 85.1189 123.74C86.1123 123.867 87.3481 123.988 88.3414 123.988C91.8123 123.988 95.2774 123.369 98.3786 122.004C107.053 118.527 113.122 110.583 114.485 101.401C115.479 97.0616 114.982 92.7223 113.377 88.1284Z" fill="#222222"/>
</g>
<defs>
<clipPath id="clip0">
<rect width="115" height="124" fill="white"/>
</clipPath>
</defs>
</svg>
