<svg width="124" height="124" viewBox="0 0 124 124" fill="none" xmlns="http://www.w3.org/2000/svg">
<path d="M108.049 86.1108H100.847V21.1097C100.847 19.6828 99.6903 18.5259 98.2634 18.5259H85.1868V2.58376C85.1868 1.15692 84.0299 0 82.6031 0H41.3969C39.97 0 38.8131 1.15692 38.8131 2.58376V18.5259H25.7365C24.3097 18.5259 23.1528 19.6828 23.1528 21.1097V86.1108H15.9505C14.5236 86.1108 13.3667 87.2677 13.3667 88.6945V121.416C13.3667 122.843 14.5236 124 15.9505 124H53.4293H70.5712H108.05C109.477 124 110.634 122.843 110.634 121.416V88.6945C110.633 87.2677 109.477 86.1108 108.049 86.1108ZM95.6799 86.1108H73.0024V23.6934H95.6799V86.1108ZM80.0193 5.16753V6.98498H43.9807V5.16753H80.0193ZM43.9807 12.1525H80.0193V18.5262H70.4183C68.9915 18.5262 67.8346 19.6831 67.8346 21.11V86.1111H56.1654V21.1097C56.1654 19.6828 55.0085 18.5259 53.5816 18.5259H43.9807V12.1525ZM28.3203 23.6934H50.9978V86.1108H28.3203V23.6934ZM105.466 91.2783V108.506H73.1547V103.037C73.1547 101.61 71.9978 100.453 70.5709 100.453H53.4293C52.0025 100.453 50.8456 101.61 50.8456 103.037V108.506H18.5342V91.2783H105.466ZM18.5342 113.674H50.8456V118.832H18.5342V113.674ZM56.0131 118.833V105.621H67.9875V118.833H56.0131ZM73.1547 118.833V113.674H105.466V118.833H73.1547Z" fill="#222222"/>
<path d="M37.6016 31.6864H32.4341V38.0157H37.6016V31.6864Z" fill="#222222"/>
<path d="M46.8843 31.6864H41.7168V38.0157H46.8843V31.6864Z" fill="#222222"/>
<path d="M37.6016 45.1472H32.4341V51.4765H37.6016V45.1472Z" fill="#222222"/>
<path d="M46.8843 45.1472H41.7168V51.4765H46.8843V45.1472Z" fill="#222222"/>
<path d="M37.6016 58.6083H32.4341V64.9376H37.6016V58.6083Z" fill="#222222"/>
<path d="M46.8843 58.6083H41.7168V64.9376H46.8843V58.6083Z" fill="#222222"/>
<path d="M37.6016 72.0691H32.4341V78.3984H37.6016V72.0691Z" fill="#222222"/>
<path d="M46.8843 72.0691H41.7168V78.3984H46.8843V72.0691Z" fill="#222222"/>
<path d="M82.2832 31.6864H77.1157V38.0157H82.2832V31.6864Z" fill="#222222"/>
<path d="M91.566 31.6864H86.3984V38.0157H91.566V31.6864Z" fill="#222222"/>
<path d="M82.2832 45.1472H77.1157V51.4765H82.2832V45.1472Z" fill="#222222"/>
<path d="M91.566 45.1472H86.3984V51.4765H91.566V45.1472Z" fill="#222222"/>
<path d="M82.2832 58.6083H77.1157V64.9376H82.2832V58.6083Z" fill="#222222"/>
<path d="M91.566 58.6083H86.3984V64.9376H91.566V58.6083Z" fill="#222222"/>
<path d="M82.2832 72.0691H77.1157V78.3984H82.2832V72.0691Z" fill="#222222"/>
<path d="M91.566 72.0691H86.3984V78.3984H91.566V72.0691Z" fill="#222222"/>
</svg>
